<?xml version="1.0" standalone="no"?>
<!DOCTYPE svg PUBLIC "-//W3C//DTD SVG 20010904//EN"
 "http://www.w3.org/TR/2001/REC-SVG-20010904/DTD/svg10.dtd">
<svg version="1.0" xmlns="http://www.w3.org/2000/svg"
 width="2001.000000pt" height="2001.000000pt" viewBox="0 0 2001.000000 2001.000000"
 preserveAspectRatio="xMidYMid meet">
<metadata>
Created by potrace 1.11, written by Peter Selinger 2001-2013
</metadata>
<g transform="translate(0.000000,2001.000000) scale(0.100000,-0.100000)"
fill="#000000" stroke="none">
<path d="M5878 15535 c-2 -1 -43 -5 -93 -9 -104 -7 -124 -10 -261 -36 -669
-129 -1293 -572 -1732 -1228 -75 -112 -190 -305 -539 -907 -148 -255 -546
-946 -586 -1015 -10 -19 -86 -152 -167 -295 -81 -143 -168 -296 -192 -340 -25
-44 -54 -97 -66 -118 -42 -73 -491 -885 -585 -1057 -52 -96 -113 -209 -136
-250 -131 -239 -446 -886 -556 -1140 -76 -177 -110 -247 -315 -655 -429 -856
-540 -1128 -626 -1542 -22 -103 -27 -451 -9 -583 81 -601 393 -1164 831 -1497
260 -198 510 -311 818 -370 99 -19 397 -25 516 -10 172 21 404 83 592 158 489
194 1087 605 1688 1159 527 487 996 782 1409 887 91 23 127 27 256 27 169 1
239 -6 354 -34 379 -95 758 -330 1175 -730 49 -47 216 -210 370 -363 339 -335
388 -382 491 -473 287 -253 605 -447 890 -543 66 -22 131 -42 145 -45 14 -2
46 -9 73 -15 161 -37 406 -50 577 -30 415 49 812 235 1210 568 121 101 239
213 506 477 262 260 489 481 564 549 51 46 242 202 280 228 330 230 582 347
855 396 161 29 383 23 518 -12 142 -38 254 -81 402 -154 110 -55 366 -207 407
-243 7 -6 58 -43 113 -83 126 -92 316 -250 465 -386 63 -58 133 -122 154 -141
21 -19 44 -40 50 -45 83 -77 419 -346 568 -455 88 -65 302 -209 378 -254 25
-15 52 -31 60 -36 108 -68 349 -188 486 -243 202 -82 392 -133 594 -162 90
-12 417 -14 465 -2 11 2 43 8 70 11 129 18 357 96 505 174 76 39 277 165 290
181 3 3 37 32 75 63 285 231 527 592 667 998 36 106 85 302 94 378 3 31 8 60
10 64 5 8 17 206 17 278 1 207 -40 431 -124 682 -96 287 -198 515 -489 1093
-226 450 -256 513 -368 765 -33 74 -78 173 -99 220 -22 47 -55 117 -73 155
-41 90 -263 534 -322 645 -56 106 -88 164 -256 470 -74 135 -150 274 -170 310
-57 105 -419 755 -487 875 -34 61 -100 175 -145 255 -46 80 -93 163 -106 185
-12 22 -82 144 -154 270 -73 127 -141 246 -152 265 -11 19 -62 107 -113 195
-51 88 -172 297 -269 465 -97 168 -180 312 -185 320 -5 8 -49 83 -97 165 -205
354 -365 567 -604 805 -445 443 -985 703 -1571 757 -136 13 -404 7 -514 -11
-234 -39 -424 -102 -655 -218 -408 -204 -784 -518 -1225 -1022 -33 -38 -64
-74 -70 -80 -5 -6 -44 -49 -85 -96 -354 -403 -641 -642 -945 -791 -244 -118
-451 -166 -720 -167 -413 -1 -768 134 -1145 434 -93 75 -393 370 -512 504 -41
47 -132 150 -203 230 -665 755 -1265 1135 -1920 1216 -51 6 -341 14 -347 9z"/>
</g>
</svg>
