<?xml version="1.0" encoding="utf-8"?>
<!-- Generator: Adobe Illustrator 23.0.1, SVG Export Plug-In . SVG Version: 6.00 Build 0)  -->
<svg version="1.1" id="Layer_1" xmlns="http://www.w3.org/2000/svg" xmlns:xlink="http://www.w3.org/1999/xlink" x="0px" y="0px"
	 viewBox="0 0 1380.95 1161.61" style="enable-background:new 0 0 1380.95 1161.61;" xml:space="preserve">
<style type="text/css">
	.st0{fill:#FFFFFF;}
</style>
<title>icon-vAsset 1</title>
<g>
	<g>
		<path class="st0" d="M1374.1,583.39c-10.68-48.07-42.76-97.92-61.51-141c-13.96-32.11-29.39-63.5-46.3-94.15
			c-43.56-79.41-62.08-112.75-139.95-246.54C1092.6,43.7,1037.21,0,966.21,0c-22.91,0-75.28,4-141.13,77.47
			c-33.19,37.05-70.06,86.75-132.94,86.75s-99.75-49.7-132.93-86.75C493.4,4,440.98,0,418.08,0c-71,0-126.4,43.7-160.14,101.66
			C180.07,235.45,161.55,268.79,118,348.2c-16.84,30.7-32.28,62.08-46.31,94.15c-18.74,43.12-50.83,93-61.51,141
			c-11.45,51.53,12.59,114.44,54.65,146.86c84.22,64.92,174.1,0.64,238.91-55.74c8.85-7.69,71.21-71.25,124-71.25
			c56.92,0,102,51.68,120.69,69.24c28.22,26.46,73.58,84.94,143.72,84.94s115.5-58.48,143.72-84.94
			c18.72-17.56,63.77-69.24,120.69-69.24c52.78,0,115.14,63.56,124,71.25c64.81,56.38,154.69,120.66,238.91,55.74
			C1361.51,697.79,1385.56,634.88,1374.1,583.39z M1058.93,340.55L1036.14,353c-23.63,12.93-43.07,32.37-56,56l-12.48,22.82
			c-3.14,5.83-10.42,8.02-16.26,4.87c-2.07-1.11-3.76-2.81-4.87-4.87L934.04,409c-12.93-23.64-32.36-43.07-56-56l-22.82-12.47
			c-5.83-3.14-8.02-10.42-4.87-16.26c1.11-2.07,2.81-3.76,4.87-4.87l22.82-12.48c23.64-12.93,43.07-32.36,56-56l12.48-22.82
			c3.14-5.83,10.42-8.02,16.26-4.87c2.07,1.11,3.76,2.81,4.87,4.87l12.48,22.82c12.93,23.64,32.36,43.07,56,56l22.8,12.5
			c5.83,3.14,8.02,10.42,4.87,16.26C1062.69,337.74,1061,339.44,1058.93,340.55z M1194.25,496.49l-11.22,6.13
			c-11.62,6.36-21.18,15.92-27.54,27.55l-6.14,11.22c-1.58,2.87-5.19,3.91-8.05,2.34c-0.98-0.54-1.79-1.35-2.34-2.34l-6.13-11.22
			c-6.36-11.63-15.92-21.19-27.55-27.55l-11.21-6.13c-2.87-1.57-3.92-5.16-2.36-8.03c0.54-0.99,1.36-1.81,2.36-2.36l11.21-6.14
			c11.63-6.36,21.19-15.92,27.55-27.54l6.13-11.22c1.57-2.87,5.16-3.92,8.03-2.36c0.99,0.54,1.81,1.36,2.36,2.36l6.14,11.22
			c6.36,11.64,15.93,21.21,27.57,27.58l11.22,6.14c2.86,1.59,3.89,5.19,2.3,8.05c-0.54,0.97-1.33,1.76-2.3,2.3L1194.25,496.49
			L1194.25,496.49z"/>
	</g>
	<g>
		<path class="st0" d="M138.81,849.26v102.49h-24.13v-64.54l-42.21,53.95l-42.2-53.95v64.54H6.14V849.26h25l41.34,52.79l41.35-52.79
			H138.81z"/>
		<path class="st0" d="M282.04,849.26v24.12h-78.36v15.06h78.36v24.12h-78.36v15.06h78.36v24.13H179.55V849.26H282.04z"/>
		<path class="st0" d="M425.27,933.67c0,9.99-8.09,18.08-18.08,18.08l0,0h-84.41V849.26h84.41c9.91-0.08,18,7.89,18.08,17.8
			c0,0.09,0,0.18,0,0.27V933.67z M401.14,873.38h-54.23v54.24h54.23V873.38z"/>
		<path class="st0" d="M466.01,849.26h24.13v102.49h-24.13V849.26z"/>
		<path class="st0" d="M606.64,849.26l49.27,102.49h-26.36l-36.81-74.19l-35.51,74.19h-26.36l47.9-102.49H606.64z"/>
		<path class="st0" d="M805.19,849.26v102.49h-27.23l-57.19-66.91v66.91h-24.12V849.26h27.22l57.19,66.83v-66.83H805.19z"/>
		<path class="st0" d="M948.42,849.26v24.12h-78.37v15.06h78.37v24.12h-78.37v15.06h78.37v24.13H845.93V849.26H948.42z"/>
		<path class="st0" d="M1091.65,849.26v24.12h-78.37v15.06h78.37v24.12h-78.37v15.06h78.37v24.13H989.14V849.26H1091.65z"/>
		<path class="st0" d="M1230.19,951.75h-26.36l-21.17-39.19h-26.15v39.19h-24.13V849.26h81.39c9.97-0.05,18.1,8,18.15,17.97
			c0,0.03,0,0.07,0,0.1v27.16c-0.07,9.98-8.17,18.04-18.15,18.07h-4.18L1230.19,951.75z M1207.79,873.38h-51.28v15.06h51.28V873.38z
			"/>
		<path class="st0" d="M1378.14,933.67c0,9.95-8.05,18.04-18,18.08h-69.4c-9.96-0.07-18.01-8.12-18.08-18.08v-15.13h24.13v9.08
			h57.26v-15.06l-68.28-0.07l-1.3-0.29c-6.93-1.51-11.86-7.67-11.81-14.76v-30.11c-0.01-9.97,8.08-18.06,18.05-18.07
			c0.01,0,0.02,0,0.03,0h69.4c9.91-0.03,17.97,7.97,18,17.88c0,0.06,0,0.13,0,0.19v15.06h-24.13v-9h-57.26v15l68.28,0.08l1.3,0.28
			c6.91,1.5,11.83,7.63,11.81,14.7L1378.14,933.67z"/>
	</g>
	<g>
		<path class="st0" d="M357.6,1161.61c-5.78-0.04-10.45-4.71-10.48-10.49v-38.46c0-5.79,4.69-10.48,10.48-10.48h40.22
			c5.75-0.04,10.44,4.59,10.48,10.34c0,0.05,0,0.09,0,0.14v8.73h-14v-5.22h-33.2v31.45h33.2v-5.27h14v8.77
			c0.01,5.79-4.68,10.48-10.47,10.49h-0.01H357.6z"/>
		<path class="st0" d="M428.81,1161.61c-5.78-0.04-10.45-4.71-10.49-10.49v-38.46c0.01-5.79,4.7-10.47,10.49-10.48h38.46
			c5.75-0.04,10.44,4.59,10.48,10.34c0,0.05,0,0.09,0,0.14v38.46c0.01,5.79-4.68,10.48-10.47,10.49h-0.01H428.81z M432.32,1137.72
			l21.61-21.55h-21.61V1137.72z M463.76,1126.02l-21.55,21.6h21.55V1126.02z"/>
		<path class="st0" d="M564.7,1102.18v59.43h-14v-37.42l-24.47,31.28l-24.47-31.28v37.42h-14v-59.43h14.49l24,30.61l24-30.61H564.7z
			"/>
		<path class="st0" d="M574.73,1102.18h14v59.43h-14V1102.18z"/>
		<path class="st0" d="M661.68,1102.18v59.43h-15.75l-33.16-38.8v38.8h-14v-59.43h15.76l33.15,38.75v-38.75H661.68z"/>
		<path class="st0" d="M682.18,1161.61c-5.78-0.04-10.45-4.71-10.48-10.49v-38.46c0-5.79,4.69-10.48,10.48-10.48h40.22
			c5.75-0.07,10.46,4.54,10.53,10.29c0,0.06,0,0.13,0,0.19v8.73h-14v-5.22h-33.2v31.45h33.2v-8.73h-19.25v-14h33.25v26.22
			c0.01,5.79-4.68,10.48-10.47,10.49h-0.01L682.18,1161.61z"/>
		<path class="st0" d="M825.3,1151.12c0.01,5.79-4.68,10.48-10.47,10.49h-0.01H774.6c-5.78-0.04-10.45-4.71-10.48-10.49v-8.77h14
			v5.27h33.2v-8.73h-39.59l-0.75-0.17c-4.02-0.87-6.88-4.45-6.85-8.56v-17.46c0-5.79,4.69-10.48,10.48-10.48h40.22
			c5.75-0.04,10.44,4.59,10.48,10.34c0,0.05,0,0.09,0,0.14v8.73h-14v-5.22h-33.2v8.69h39.59l0.75,0.16
			c4.01,0.87,6.86,4.42,6.85,8.52L825.3,1151.12L825.3,1151.12z"/>
		<path class="st0" d="M845.81,1161.61c-5.78-0.03-10.46-4.71-10.49-10.49v-38.46c0-5.79,4.69-10.48,10.48-10.48h0.01h38.46
			c5.75-0.04,10.44,4.59,10.48,10.34c0,0.05,0,0.09,0,0.14v38.46c0.01,5.79-4.68,10.48-10.47,10.49h-0.01H845.81z M849.31,1137.72
			l21.6-21.55h-21.6V1137.72z M880.76,1126.02l-21.55,21.6h21.55V1126.02z"/>
		<path class="st0" d="M915.26,1161.61c-5.78-0.04-10.45-4.71-10.48-10.49v-38.46c0-5.79,4.69-10.48,10.48-10.48h38.46
			c5.75-0.04,10.44,4.59,10.48,10.34c0,0.05,0,0.09,0,0.14v38.46c0.01,5.79-4.68,10.48-10.47,10.49h-0.01H915.26z M918.77,1137.72
			l21.59-21.55h-21.59V1137.72z M950.21,1126.02l-21.55,21.6h21.55V1126.02z"/>
		<path class="st0" d="M1037.16,1102.18v59.43h-15.78l-33.16-38.8v38.8h-14v-59.43H990l33.16,38.75v-38.75H1037.16z"/>
	</g>
</g>
</svg>
